# Blender v2.90.1 OBJ File: 'child.blend'
# www.blender.org
mtllib child.mtl
o Cube_Cube.002
v 1.000000 0.000000 0.600000
v 1.000000 0.000000 -0.600000
v 1.000000 0.200000 0.600000
v 0.550000 -1.000000 -0.000000
v 1.100000 0.000000 0.000000
v 0.000000 -0.400000 -0.600000
v 0.000000 -0.400000 0.600000
v 0.000000 0.000000 1.000000
v -1.000000 0.000000 0.600000
v -1.000000 0.000000 -0.600000
v 0.000000 0.000000 -1.000000
v 0.000000 0.200000 1.000000
v -1.000000 0.200000 0.600000
v 0.000000 -0.400000 0.000000
v -0.550000 -1.000000 -0.000000
v -1.100000 0.000000 0.000000
v 0.000000 1.012500 0.625000
v 0.000000 0.262500 0.925000
v 0.750000 0.262500 0.625000
v -0.750000 0.262500 0.625000
v 0.791006 0.200000 -0.683597
v 1.025699 0.200000 -0.445805
v 1.000000 0.044972 -0.600000
v 1.074340 0.200000 -0.153963
v 1.074340 0.200000 0.153963
v 1.100000 0.044972 0.000000
v 0.126077 0.971344 -0.455589
v 0.145967 0.716031 -0.683597
v -0.145967 0.716031 -0.683597
v -0.126077 0.971344 -0.455589
v 0.110370 1.089630 0.600000
v -0.110370 1.089630 0.600000
v 0.000000 1.046332 0.620489
v -1.025699 0.200000 -0.445805
v -0.791006 0.200000 -0.683597
v -1.000000 0.044972 -0.600000
v -0.145967 0.200000 -0.941613
v 0.145967 0.200000 -0.941613
v 0.000000 0.044972 -1.000000
v -0.110370 1.163970 0.153963
v 0.110370 1.163970 0.153963
v 0.115551 1.111368 -0.146162
v -0.115551 1.111368 -0.146162
v -1.074340 0.200000 0.153963
v -1.074340 0.200000 -0.153963
v -1.100000 0.044972 0.000000
vt 0.637162 0.183106
vt 0.682579 0.296420
vt 0.553632 0.216585
vt 0.028757 0.091407
vt 0.144486 0.013353
vt 0.108608 0.142687
vt 0.374325 0.339088
vt 0.390617 0.249040
vt 0.397299 0.250293
vt 0.416045 0.277503
vt 0.408120 0.321303
vt 0.381363 0.339945
vt 0.374325 0.660912
vt 0.381363 0.660055
vt 0.408120 0.678696
vt 0.416045 0.722496
vt 0.397299 0.749707
vt 0.390617 0.750960
vt 0.084991 0.637192
vt 0.000149 0.637192
vt 0.042570 0.481326
vt 0.213938 0.557358
vt 0.511211 0.372452
vt 0.468789 0.216585
vt 0.579433 0.433022
vt 0.000149 0.141530
vt 0.088842 0.180516
vt 0.001557 0.284038
vt 0.408064 0.840792
vt 0.437600 0.835056
vt 0.468492 0.994115
vt 0.438955 0.999851
vt 0.114968 0.401270
vt 0.193826 0.224535
vt 0.233761 0.246103
vt 0.200666 0.420458
vt 0.424631 0.768275
vt 0.110792 0.420755
vt 0.369091 0.500000
vt 0.375984 0.500000
vt 0.399735 0.522516
vt 0.403112 0.626310
vt 0.168521 0.670671
vt 0.637162 0.250065
vt 0.682579 0.136751
vt 0.244656 0.238320
vt 0.248963 0.240528
vt 0.230285 0.379403
vt 0.244614 0.224887
vt 0.368793 0.098291
vt 0.352119 0.145873
vt 0.203678 0.000149
vt 0.255565 0.014073
vt 0.175457 0.187480
vt 0.142129 0.168026
vt 0.213938 0.717026
vt 0.042570 0.793058
vt 0.511211 0.060719
vt 0.579433 0.000149
vt 0.408064 0.159208
vt 0.437601 0.164944
vt 0.424631 0.231725
vt 0.438955 0.000149
vt 0.468492 0.005885
vt 0.403112 0.373690
vt 0.399735 0.477484
vt 0.110792 0.853629
vt 0.304274 0.039428
vt 0.204874 0.203548
vt 0.168521 0.603712
vt 0.952708 0.541164
vt 0.709389 0.751750
vt 0.710075 0.506681
vt 0.467254 0.539803
vt 0.368793 0.303071
vt 0.350814 0.293692
vt 0.129285 0.194246
vt 0.163801 0.210359
vt 0.024607 0.340679
vt 0.065949 0.375650
vn 0.0000 -1.0000 0.0000
vn 0.1632 -0.9866 0.0000
vn 0.0000 -0.7541 0.6567
vn -0.2268 0.2675 -0.9365
vn -0.4763 0.3480 -0.8074
vn -0.2423 0.5817 -0.7765
vn -0.7285 -0.2968 -0.6174
vn -0.9701 -0.2427 0.0000
vn -0.9991 0.0410 0.0000
vn -0.9044 0.4039 -0.1371
vn -0.8338 0.4276 -0.3491
vn -0.7663 0.1406 -0.6269
vn 0.7285 -0.2968 -0.6174
vn 0.7663 0.1406 -0.6269
vn 0.8338 0.4276 -0.3491
vn 0.9044 0.4039 -0.1371
vn 0.9991 0.0410 0.0000
vn 0.9701 -0.2427 0.0000
vn 0.0000 -0.7541 -0.6567
vn 0.0000 -0.3126 -0.9499
vn 0.7285 -0.2968 0.6174
vn 0.0000 -0.3126 0.9499
vn 0.2268 0.2675 -0.9365
vn 0.2423 0.5817 -0.7765
vn 0.4763 0.3480 -0.8074
vn 0.7480 0.3291 0.5763
vn 0.0000 0.3898 0.9209
vn 0.9139 0.3975 0.0822
vn 0.3648 0.9310 0.0133
vn 0.3246 0.7123 0.6222
vn 0.0000 0.0887 -0.9960
vn -0.1632 -0.9866 0.0000
vn 0.0000 0.2455 0.9694
vn 0.0000 0.1946 0.9809
vn 0.2267 0.4620 0.8574
vn -0.3246 0.7123 0.6222
vn -0.7480 0.3291 0.5763
vn -0.2267 0.4620 0.8574
vn -0.3564 0.9061 -0.2279
vn -0.3144 0.8017 -0.5084
vn -0.7285 -0.2968 0.6174
vn -0.9139 0.3975 0.0822
vn -0.3648 0.9310 0.0133
vn 0.0000 0.6172 0.7868
vn 0.3144 0.8017 -0.5084
vn 0.3564 0.9061 -0.2279
usemtl None
s 1
f 14/1/1 4/2/2 7/3/3
f 37/4/4 35/5/5 29/6/6
f 10/7/7 16/8/8 46/9/9 45/10/10 34/11/11 36/12/12
f 2/13/13 23/14/14 22/15/15 24/16/16 26/17/17 5/18/18
f 6/19/19 11/20/20 2/21/13 4/22/2
f 4/2/2 1/23/21 8/24/22 7/3/3
f 4/2/2 5/25/18 1/23/21
f 38/26/23 28/27/24 21/28/25
f 1/29/21 3/30/26 12/31/27 8/32/22
f 25/33/28 41/34/29 31/35/30 3/36/26
f 5/18/18 26/17/17 25/37/28 3/30/26 1/29/21
f 4/22/2 2/21/13 5/38/18
f 11/39/20 39/40/31 38/41/23 21/42/25 23/14/14 2/13/13
f 6/19/19 4/22/2 14/43/1
f 14/44/1 7/3/3 15/45/32
f 3/36/26 31/35/30 33/46/33 17/47/34 19/48/35
f 33/46/33 32/49/36 13/50/37 20/51/38 17/47/34
f 34/52/11 45/53/10 43/54/39 30/55/40
f 6/19/19 15/56/32 10/57/7 11/20/20
f 15/45/32 7/3/3 8/24/22 9/58/41
f 15/45/32 9/58/41 16/59/8
f 16/8/8 9/60/41 13/61/37 44/62/42 46/9/9
f 9/60/41 8/63/22 12/64/27 13/61/37
f 11/39/20 10/7/7 36/12/12 35/65/5 37/66/4 39/40/31
f 15/56/32 16/67/8 10/57/7
f 44/68/42 13/50/37 32/49/36 40/69/43
f 6/19/19 14/70/1 15/56/32
f 19/71/35 17/72/34 18/73/44
f 20/74/38 18/73/44 17/72/34
f 12/75/27 3/36/26 19/48/35 18/76/44
f 13/50/37 12/75/27 18/76/44 20/51/38
f 21/42/25 22/15/15 23/14/14
f 24/16/16 25/37/28 26/17/17
f 27/77/45 28/27/24 29/6/6 30/55/40
f 31/35/30 32/49/36 33/46/33
f 34/11/11 35/65/5 36/12/12
f 37/66/4 38/41/23 39/40/31
f 40/69/43 41/34/29 42/78/46 43/54/39
f 44/62/42 45/10/10 46/9/9
f 40/69/43 32/49/36 31/35/30 41/34/29
f 27/77/45 22/79/15 21/28/25 28/27/24
f 28/27/24 38/26/23 37/4/4 29/6/6
f 30/55/40 43/54/39 42/78/46 27/77/45
f 41/34/29 25/33/28 24/80/16 42/78/46
f 29/6/6 35/5/5 34/52/11 30/55/40
f 43/54/39 45/53/10 44/68/42 40/69/43
f 22/79/15 27/77/45 42/78/46 24/80/16
