# Blender v2.90.1 OBJ File: 'playerCharacter.blend'
# www.blender.org
mtllib playerCharacter.mtl
o Cube_Cube.001
v 0.285253 0.831301 -0.268906
v 0.285253 0.831301 0.268906
v 0.532613 0.831301 -0.268906
v 0.532613 0.831301 0.268906
v 0.415595 3.300000 0.400000
v 0.334290 0.000000 0.100000
v 0.334290 0.000000 -0.100000
v 0.484290 0.000000 -0.100000
v 0.484290 0.000000 0.100000
v 0.496947 3.300000 -0.400000
v 0.150147 0.831301 0.000000
v 0.600000 3.300000 0.000000
v 0.661214 0.831301 0.000000
v 0.276827 0.000000 0.000000
v 0.534534 0.000000 0.000000
v 0.557383 0.831301 -0.464129
v 0.557383 0.831301 0.464129
v 0.785747 0.831301 0.000000
v 0.338735 3.349210 0.369480
v 0.301598 0.554201 0.212604
v 0.317944 0.277100 0.156302
v 0.500397 0.277100 0.156302
v 0.516505 0.554201 0.212604
v 0.500397 0.277100 -0.156302
v 0.516505 0.554201 -0.212604
v 0.317944 0.277100 -0.156302
v 0.301598 0.554201 -0.212604
v 0.192374 0.554201 0.000000
v 0.234600 0.277100 0.000000
v 0.618987 0.554201 0.000000
v 0.576761 0.277100 0.000000
v -0.285253 0.831301 -0.268906
v -0.285253 0.831301 0.268906
v -0.532613 0.831301 -0.268906
v -0.532613 0.831301 0.268906
v 0.000000 3.300000 0.541740
v -0.415595 3.300000 0.400000
v -0.334290 0.000000 0.100000
v -0.334290 0.000000 -0.100000
v -0.484290 0.000000 -0.100000
v -0.484290 0.000000 0.100000
v -0.496947 3.300000 -0.400000
v -0.150147 0.831301 0.000000
v 0.000000 3.000000 0.000000
v -0.600000 3.300000 0.000000
v -0.661214 0.831301 0.000000
v -0.276827 0.000000 0.000000
v -0.534534 0.000000 0.000000
v 0.000000 0.831301 -0.682045
v -0.557383 0.831301 -0.464129
v -0.557383 0.831301 0.464129
v 0.000000 0.831301 0.609437
v -0.785747 0.831301 0.000000
v 0.000000 0.831301 0.000000
v 0.000000 3.349210 0.511220
v 0.000000 3.975601 0.472107
v -0.338735 3.349210 0.369480
v -0.301598 0.554201 0.212604
v -0.317944 0.277100 0.156302
v -0.500397 0.277100 0.156302
v -0.516505 0.554201 0.212604
v -0.500397 0.277100 -0.156302
v -0.516505 0.554201 -0.212604
v -0.317944 0.277100 -0.156302
v -0.301598 0.554201 -0.212604
v -0.192374 0.554201 0.000000
v -0.234600 0.277100 0.000000
v -0.618987 0.554201 0.000000
v -0.576761 0.277100 0.000000
v 0.324537 3.063682 0.321227
v 0.308424 2.932612 0.314039
v 0.337539 3.057181 -0.319060
v 0.308424 2.932612 -0.314039
v 0.416672 2.933311 0.000000
v 0.439722 3.059582 0.000000
v -0.308424 2.932612 0.314039
v -0.324537 3.063682 0.321227
v -0.308424 2.932612 -0.314039
v -0.337539 3.057181 -0.319060
v 0.000000 2.932625 -0.416844
v 0.000000 3.026644 -0.462170
v 0.000000 3.063420 0.429964
v 0.000000 2.932625 0.416844
v -0.439722 3.059582 0.000000
v -0.416672 2.933311 0.000000
v 0.027708 4.022416 0.495785
v -0.027708 4.022416 0.495785
v 0.000000 4.021337 0.486290
v -0.033906 3.982733 -0.400000
v 0.033906 3.982733 -0.400000
v -0.034088 3.300000 -1.051983
v 0.034088 3.300000 -1.051983
v 0.000000 3.278272 -1.049300
v 0.033314 4.150030 0.000000
v -0.033314 4.150030 0.000000
v 0.571055 0.648125 0.731742
v 0.589801 0.681594 0.783001
v 0.571641 0.652528 -0.734252
v 0.589801 0.681594 -0.783001
v 0.979677 0.681293 0.000000
v 0.940387 0.664356 0.000000
v -0.589801 0.681594 0.783001
v -0.571055 0.648125 0.731742
v -0.589801 0.681594 -0.783001
v -0.571641 0.652528 -0.734252
v 0.000000 0.681583 0.979604
v 0.000000 0.644257 0.925271
v 0.000000 0.650856 -0.930092
v 0.000000 0.681583 -0.979604
v -0.940387 0.664356 0.000000
v -0.979677 0.681293 0.000000
vt 0.021546 0.661945
vt 0.085037 0.624907
vt 0.082087 0.640744
vt 0.027718 0.669420
vt 0.459184 0.230970
vt 0.493461 0.214900
vt 0.550481 0.263655
vt 0.560519 0.315356
vt 0.004902 0.621430
vt 0.054476 0.592702
vt 0.598004 0.166120
vt 0.553938 0.072080
vt 0.619626 0.111483
vt 0.618374 0.156535
vt 0.702387 0.116999
vt 0.703364 0.192015
vt 0.686847 0.167862
vt 0.686376 0.124524
vt 0.645083 0.068155
vt 0.653258 0.096480
vt 0.902344 0.165358
vt 0.902343 0.137238
vt 0.945923 0.139758
vt 0.945923 0.162875
vt 0.121513 0.858574
vt 0.229218 0.768533
vt 0.254287 0.828110
vt 0.158405 0.902054
vt 0.637845 0.251144
vt 0.653912 0.184295
vt 0.388153 0.099357
vt 0.037312 0.160725
vt 0.025360 0.103202
vt 0.397148 0.004883
vt 0.046112 0.833347
vt 0.082303 0.803929
vt 0.081450 0.888449
vt 0.151153 0.999768
vt 0.123418 0.935984
vt 0.247493 0.961638
vt 0.249957 0.967319
vt 0.961335 0.170619
vt 0.961335 0.130901
vt 0.907964 0.191573
vt 0.949513 0.179746
vt 0.902328 0.164371
vt 0.902328 0.136251
vt 0.945908 0.138734
vt 0.945908 0.161852
vt 0.907927 0.191091
vt 0.949477 0.179265
vt 0.907943 0.110518
vt 0.949492 0.122344
vt 0.907948 0.110036
vt 0.949497 0.121863
vt 0.961320 0.130990
vt 0.961320 0.170708
vt 0.634834 0.016618
vt 0.736670 0.100943
vt 0.180366 0.716955
vt 0.177754 0.720613
vt 0.171171 0.719434
vt 0.087137 0.640211
vt 0.532651 0.026652
vt 0.088423 0.546752
vt 0.119829 0.501754
vt 0.156697 0.526827
vt 0.124615 0.572073
vt 0.398526 0.434706
vt 0.026288 0.339830
vt 0.037786 0.282128
vt 0.388296 0.340788
vt 0.385221 0.220081
vt 0.041047 0.221414
vt 0.736670 0.232814
vt 0.663418 0.305719
vt 0.684009 0.450904
vt 0.961974 0.462228
vt 0.676089 0.926332
vt 0.084687 0.788459
vt 0.177854 0.724134
vt 0.815170 0.131284
vt 0.824852 0.086377
vt 0.866400 0.098207
vt 0.858749 0.133767
vt 0.815184 0.132203
vt 0.824852 0.086842
vt 0.866397 0.098682
vt 0.858763 0.134720
vt 0.824836 0.214767
vt 0.815168 0.169406
vt 0.858748 0.166889
vt 0.866381 0.202927
vt 0.824868 0.215232
vt 0.815185 0.170325
vt 0.858764 0.167841
vt 0.866415 0.203402
vt 0.028251 0.750890
vt 0.036529 0.744853
vt 0.492596 0.139609
vt 0.459551 0.098753
vt 0.000232 0.790106
vt 0.577603 0.175640
vt 0.542181 0.147772
vt 0.509488 0.207411
vt 0.542490 0.235506
vt 0.509131 0.164016
vt 0.902328 0.136251
vt 0.945908 0.138733
vt 0.945908 0.161851
vt 0.902328 0.164371
vt 0.131601 0.443160
vt 0.238344 0.430521
vt 0.240958 0.436817
vt 0.576193 0.220713
vt 0.961320 0.130990
vt 0.961320 0.170708
vt 0.907948 0.110036
vt 0.949497 0.121863
vt 0.902328 0.137326
vt 0.945908 0.139846
vt 0.945908 0.162964
vt 0.902328 0.165446
vt 0.907927 0.110607
vt 0.949477 0.122433
vt 0.264944 0.592550
vt 0.243111 0.663879
vt 0.949477 0.179265
vt 0.907927 0.191091
vt 0.949497 0.179834
vt 0.907948 0.191661
vt 0.961320 0.130990
vt 0.961320 0.170708
vt 0.391072 0.101902
vt 0.387998 0.222608
vt 0.043824 0.221276
vt 0.040563 0.160562
vt 0.401303 0.007983
vt 0.029065 0.102860
vt 0.390930 0.343333
vt 0.399925 0.437807
vt 0.028136 0.339488
vt 0.040088 0.281964
vt 0.405822 0.452964
vt 0.815170 0.170414
vt 0.858749 0.167930
vt 0.866400 0.203491
vt 0.824852 0.215320
vt 0.815168 0.169406
vt 0.858748 0.166889
vt 0.866381 0.202927
vt 0.824836 0.214767
vt 0.824836 0.086930
vt 0.866381 0.098770
vt 0.858748 0.134808
vt 0.815168 0.132291
vt 0.824852 0.086377
vt 0.866400 0.098207
vt 0.858749 0.133767
vt 0.815170 0.131284
vt 0.320132 0.703376
vt 0.324612 0.646854
vt 0.343101 0.653746
vt 0.336218 0.703376
vt 0.340716 0.597794
vt 0.362539 0.549937
vt 0.380897 0.558794
vt 0.359095 0.605114
vt 0.390052 0.504930
vt 0.407002 0.516026
vt 0.343101 0.753006
vt 0.324612 0.759898
vt 0.359095 0.801638
vt 0.380897 0.847958
vt 0.362539 0.856815
vt 0.340716 0.808958
vt 0.407002 0.890725
vt 0.390052 0.901822
vt 0.257775 0.966241
vt 0.237636 0.762128
vt 0.264944 0.825845
vt 0.390642 0.220080
vt 0.396485 0.337139
vt 0.408117 0.009135
vt 0.397043 0.103184
vt 0.408117 0.430755
vt 0.399261 0.105551
vt 0.393418 0.222609
vt 0.399820 0.339505
vt 0.410893 0.433555
vt 0.410893 0.011934
vn 0.0000 0.1456 0.9893
vn 0.6836 0.0012 0.7298
vn -0.0135 0.1373 0.9904
vn 0.0000 0.4198 0.9076
vn -0.0373 -0.9993 0.0031
vn 0.5017 -0.8650 -0.0017
vn 0.3435 -0.8933 -0.2898
vn -0.1118 -0.9933 0.0291
vn 0.0000 -0.2737 0.9618
vn 0.6504 -0.3284 0.6849
vn 0.0000 -1.0000 0.0000
vn 0.0000 -0.9339 0.3574
vn -0.2344 -0.8877 -0.3963
vn -0.5089 -0.8608 0.0000
vn -0.5017 -0.8650 -0.0017
vn -0.3435 -0.8933 -0.2898
vn 0.2361 -0.8898 0.3905
vn 0.5174 -0.8557 0.0000
vn -0.3500 -0.8926 0.2842
vn 0.2361 -0.8898 -0.3905
vn 0.5218 -0.1976 0.8298
vn -0.5067 -0.1966 0.8394
vn -0.3830 -0.6838 0.6211
vn 0.4002 -0.6795 0.6149
vn -0.9994 -0.0032 0.0331
vn -0.4460 0.8945 -0.0312
vn -0.4168 0.7608 -0.4974
vn -0.8976 -0.0895 -0.4315
vn 0.0000 -0.9481 -0.3179
vn -0.2344 -0.8877 0.3963
vn 0.5997 -0.3387 0.7249
vn 0.6840 0.0579 0.7272
vn 0.0000 0.0761 0.9971
vn 0.0000 -0.3380 0.9411
vn -0.6504 -0.3284 0.6849
vn -0.6836 0.0012 0.7298
vn -0.9215 -0.3864 0.0384
vn 0.0000 -0.6435 -0.7655
vn -0.7027 -0.5195 -0.4861
vn -0.4715 -0.0147 -0.8817
vn 0.0000 -0.6454 -0.7638
vn 0.7377 -0.6751 0.0000
vn -0.7447 -0.6673 0.0000
vn 0.9882 -0.1531 0.0000
vn -0.5067 -0.1966 -0.8394
vn 0.5218 -0.1976 -0.8298
vn 0.4002 -0.6795 -0.6149
vn -0.3830 -0.6838 -0.6211
vn -0.9874 -0.1580 0.0000
vn 0.0837 -0.9965 -0.0057
vn 0.0373 -0.9993 0.0031
vn 0.1918 0.4661 0.8637
vn 0.0000 -0.7643 0.6448
vn 0.0000 -0.3208 0.9471
vn 0.0000 -0.9976 -0.0692
vn 0.9215 -0.3864 0.0384
vn 0.7027 -0.5195 -0.4861
vn 0.8976 -0.0895 -0.4315
vn 0.9994 -0.0032 0.0331
vn 0.0000 -0.3555 -0.9347
vn 0.0000 -0.0178 -0.9998
vn 0.6921 -0.0038 -0.7217
vn 0.5976 -0.3536 -0.7196
vn 0.9434 -0.3317 0.0031
vn 0.9998 0.0196 0.0056
vn 0.1118 -0.9933 0.0291
vn 0.0000 -0.9940 0.1094
vn 0.0135 0.1373 0.9904
vn -0.1918 0.4661 0.8637
vn 0.9883 -0.1524 0.0000
vn 0.5241 -0.1978 -0.8283
vn -0.9877 -0.1560 0.0000
vn -0.5134 -0.1971 0.8352
vn -0.5134 -0.1971 -0.8352
vn 0.5241 -0.1978 0.8283
vn 0.3500 -0.8926 0.2842
vn -0.0837 -0.9965 -0.0057
vn 0.5089 -0.8608 0.0000
vn 0.2344 -0.8877 -0.3963
vn -0.5174 -0.8557 0.0000
vn -0.2361 -0.8898 0.3905
vn -0.2361 -0.8898 -0.3905
vn -0.5218 -0.1976 0.8298
vn -0.4002 -0.6795 0.6149
vn 0.3830 -0.6838 0.6211
vn 0.5067 -0.1966 0.8394
vn 0.4715 -0.0147 -0.8817
vn 0.2344 -0.8877 0.3963
vn -0.7377 -0.6751 0.0000
vn 0.7447 -0.6673 0.0000
vn -0.9882 -0.1531 0.0000
vn 0.5067 -0.1966 -0.8394
vn 0.3830 -0.6838 -0.6211
vn -0.4002 -0.6795 -0.6149
vn -0.5218 -0.1976 -0.8298
vn 0.9874 -0.1580 0.0000
vn 0.4168 0.7608 -0.4974
vn 0.4460 0.8945 -0.0312
vn -0.5976 -0.3536 -0.7196
vn -0.9434 -0.3317 0.0031
vn -0.9998 0.0196 0.0056
vn -0.6921 -0.0038 -0.7217
vn -0.5997 -0.3387 0.7249
vn -0.6840 0.0579 0.7272
vn -0.5241 -0.1978 -0.8283
vn -0.9883 -0.1524 0.0000
vn 0.5134 -0.1971 0.8352
vn 0.9877 -0.1560 0.0000
vn 0.5134 -0.1971 -0.8352
vn -0.5241 -0.1978 0.8283
usemtl None
s 1
f 36/1/1 5/2/2 19/3/3 55/4/4
f 110/5/5 53/6/6 51/7/7 103/8/8
f 82/9/9 70/10/10 5/2/2 36/1/1
f 54/11/11 49/12/12 1/13/13 11/14/14
f 18/15/15 17/16/16 4/17/17 13/18/18
f 49/12/12 16/19/19 3/20/20 1/13/13
f 22/21/21 21/22/22 6/23/23 9/24/24
f 45/25/25 95/26/26 89/27/27 42/28/28
f 17/16/16 52/29/29 2/30/30 4/17/17
f 97/31/31 71/32/32 83/33/33 106/34/34
f 77/35/35 37/36/36 45/25/25 84/37/37
f 81/38/38 79/39/39 42/28/28 91/40/40 93/41/41
f 15/42/42 9/24/24 6/23/23 14/43/43
f 31/44/44 22/21/21 9/24/24 15/45/42
f 26/46/45 24/47/46 8/48/47 7/49/48
f 29/50/49 26/46/45 7/49/48 14/51/43
f 89/27/27 91/40/40 42/28/28
f 21/22/22 29/52/49 14/53/43 6/23/23
f 24/47/46 31/54/44 15/55/42 8/48/47
f 8/48/47 15/56/42 14/57/43 7/49/48
f 98/58/50 101/59/51 18/15/15 16/19/19
f 5/2/2 86/60/52 88/61/53 56/62/54 19/63/3
f 108/64/55 98/58/50 16/19/19 49/12/12
f 16/19/19 18/15/15 13/18/18 3/20/20
f 52/29/29 54/11/11 11/14/14 2/30/30
f 75/65/56 72/66/57 10/67/58 12/68/59
f 109/69/60 80/70/61 73/71/62 99/72/63
f 100/73/64 74/74/65 71/32/32 97/31/31
f 99/72/63 73/71/62 74/74/65 100/73/64
f 96/75/66 107/76/67 52/29/29 17/16/16
f 55/77/4 19/78/3 56/79/54
f 37/36/36 57/80/68 56/62/54 88/61/53 87/81/69
f 3/82/20 13/83/18 30/84/70 25/85/71
f 25/85/71 30/84/70 31/54/44 24/47/46
f 2/86/30 11/87/14 28/88/72 20/89/73
f 20/89/73 28/88/72 29/52/49 21/22/22
f 11/90/14 1/91/13 27/92/74 28/93/72
f 28/93/72 27/92/74 26/46/45 29/50/49
f 1/91/13 3/82/20 25/85/71 27/92/74
f 27/92/74 25/85/71 24/47/46 26/46/45
f 13/94/18 4/95/17 23/96/75 30/97/70
f 30/97/70 23/96/75 22/21/21 31/44/44
f 4/95/17 2/86/30 20/89/73 23/96/75
f 23/96/75 20/89/73 21/22/22 22/21/21
f 36/98/1 55/99/4 57/80/68 37/36/36
f 108/64/55 49/12/12 50/100/76 105/101/77
f 82/102/9 36/98/1 37/36/36 77/35/35
f 54/11/11 43/103/78 32/104/79 49/12/12
f 53/6/6 46/105/80 35/106/81 51/7/7
f 49/12/12 32/104/79 34/107/82 50/100/76
f 60/108/83 41/109/84 38/110/85 59/111/86
f 81/112/38 93/113/41 92/114/87 10/67/58 72/66/57
f 51/7/7 35/106/81 33/115/88 52/29/29
f 105/101/77 50/100/76 53/6/6 110/5/5
f 48/116/89 47/117/90 38/110/85 41/109/84
f 69/118/91 48/119/89 41/109/84 60/108/83
f 64/120/92 39/121/93 40/122/94 62/123/95
f 67/124/96 47/125/90 39/121/93 64/120/92
f 12/68/59 10/67/58 90/126/97 94/127/98
f 59/111/86 38/110/85 47/128/90 67/129/96
f 62/123/95 40/122/94 48/130/89 69/131/91
f 40/122/94 39/121/93 47/132/90 48/133/89
f 103/8/8 51/7/7 52/29/29 107/76/67
f 5/2/2 12/68/59 94/127/98 86/60/52
f 104/134/99 111/135/100 85/136/101 78/137/102
f 50/100/76 34/107/82 46/105/80 53/6/6
f 52/29/29 33/115/88 43/103/78 54/11/11
f 84/37/37 45/25/25 42/28/28 79/39/39
f 109/138/60 104/134/99 78/137/102 80/139/61
f 102/140/103 106/141/34 83/142/33 76/143/104
f 111/135/100 102/140/103 76/143/104 85/136/101
f 55/77/4 56/79/54 57/144/68
f 90/126/97 10/67/58 92/114/87
f 34/145/82 63/146/105 68/147/106 46/148/80
f 63/146/105 62/123/95 69/131/91 68/147/106
f 33/149/88 58/150/107 66/151/108 43/152/78
f 58/150/107 59/111/86 67/129/96 66/151/108
f 43/153/78 66/154/108 65/155/109 32/156/79
f 66/154/108 67/124/96 64/120/92 65/155/109
f 32/156/79 65/155/109 63/146/105 34/145/82
f 65/155/109 64/120/92 62/123/95 63/146/105
f 46/157/80 68/158/106 61/159/110 35/160/81
f 68/158/106 69/118/91 60/108/83 61/159/110
f 35/160/81 61/159/110 58/150/107 33/149/88
f 61/159/110 60/108/83 59/111/86 58/150/107
f 81/161/38 72/162/57 73/163/62 80/164/61
f 75/165/56 70/166/10 71/167/32 74/168/65
f 70/166/10 82/169/9 83/170/33 71/167/32
f 72/162/57 75/165/56 74/168/65 73/163/62
f 80/164/61 78/171/102 79/172/39 81/161/38
f 85/173/101 76/174/104 77/175/35 84/176/37
f 76/174/104 83/177/33 82/178/9 77/175/35
f 78/171/102 85/173/101 84/176/37 79/172/39
f 70/10/10 75/65/56 12/68/59 5/2/2
f 86/60/52 87/81/69 88/61/53
f 91/40/40 92/179/87 93/41/41
f 95/26/26 87/81/69 86/60/52 94/180/98
f 90/181/97 92/179/87 91/40/40 89/27/27
f 89/27/27 95/26/26 94/180/98 90/181/97
f 37/36/36 87/81/69 95/26/26 45/25/25
f 101/182/51 98/183/50 99/72/63 100/73/64
f 107/184/67 96/185/66 97/31/31 106/34/34
f 109/69/60 99/72/63 98/183/50 108/186/55
f 96/185/66 101/182/51 100/73/64 97/31/31
f 111/135/100 104/134/99 105/187/77 110/188/5
f 106/141/34 102/140/103 103/189/8 107/190/67
f 108/191/55 105/187/77 104/134/99 109/138/60
f 102/140/103 111/135/100 110/188/5 103/189/8
f 101/59/51 96/75/66 17/16/16 18/15/15
l 80 44
