# Blender v2.90.1 OBJ File: 'playerCharacter.blend'
# www.blender.org
mtllib playerCharacter.mtl
o Cube_Cube.001
v 0.285253 -1.168699 -0.268906
v 0.285253 -1.168699 0.268906
v 0.600000 -1.400000 0.800000
v 0.300000 1.000000 0.300000
v 0.600000 -1.400000 -0.800000
v 0.300000 1.000000 -0.300000
v 0.532613 -1.168699 -0.268906
v 0.532613 -1.168699 0.268906
v 0.415595 1.300000 0.400000
v 0.334290 -2.000000 0.100000
v 0.334290 -2.000000 -0.100000
v 0.484290 -2.000000 -0.100000
v 0.484290 -2.000000 0.100000
v 0.496947 1.300000 -0.400000
v 1.000000 -1.400000 0.000000
v 0.400000 1.000000 0.000000
v 0.150147 -1.168699 0.000000
v 0.600000 1.300000 0.000000
v 0.661214 -1.168699 0.000000
v 0.276827 -2.000000 0.000000
v 0.534534 -2.000000 0.000000
v 0.557383 -1.168699 -0.464129
v 0.557383 -1.168699 0.464129
v 0.785747 -1.168699 0.000000
v 0.338735 1.349210 0.369480
v -0.285253 -1.168699 -0.268906
v -0.285253 -1.168699 0.268906
v -0.600000 -1.400000 0.800000
v -0.300000 1.000000 0.300000
v -0.600000 -1.400000 -0.800000
v -0.300000 1.000000 -0.300000
v 0.000000 2.074022 0.502627
v 0.000000 1.000000 -0.400000
v 0.000000 -1.400000 1.000000
v 0.000000 1.000000 0.400000
v 0.000000 -1.400000 -1.000000
v -0.532613 -1.168699 -0.268906
v -0.532613 -1.168699 0.268906
v 0.000000 1.300000 0.541740
v -0.415595 1.300000 0.400000
v 0.000000 1.300000 -0.400000
v -0.334290 -2.000000 0.100000
v -0.334290 -2.000000 -0.100000
v -0.484290 -2.000000 -0.100000
v -0.484290 -2.000000 0.100000
v -0.496947 1.300000 -0.400000
v 0.000000 2.032726 -0.400000
v 0.000000 1.300000 -0.900000
v -1.000000 -1.400000 0.000000
v -0.400000 1.000000 0.000000
v 0.000000 2.200000 0.000000
v -0.150147 -1.168699 0.000000
v 0.000000 1.000000 0.000000
v -0.600000 1.300000 0.000000
v -0.661214 -1.168699 0.000000
v -0.276827 -2.000000 0.000000
v -0.534534 -2.000000 0.000000
v 0.000000 -1.168699 -0.682045
v -0.557383 -1.168699 -0.464129
v -0.557383 -1.168699 0.464129
v 0.000000 -1.168699 0.609437
v -0.785747 -1.168699 0.000000
v 0.000000 -1.168699 0.000000
v 0.000000 1.349210 0.511220
v 0.000000 1.975601 0.472107
v -0.338735 1.349210 0.369480
vt 0.625000 0.875000
vt 0.625000 0.750000
vt 0.625000 0.750000
vt 0.625000 0.875000
vt 0.500000 0.375000
vt 0.625000 0.375000
vt 0.625000 0.500000
vt 0.500000 0.500000
vt 0.500000 0.625000
vt 0.625000 0.625000
vt 0.625000 0.750000
vt 0.500000 0.750000
vt 0.000000 0.000000
vt 0.000000 0.000000
vt 0.000000 0.000000
vt 0.000000 0.000000
vt 0.500000 0.625000
vt 0.500000 0.750000
vt 0.500000 0.750000
vt 0.500000 0.625000
vt 0.500000 0.375000
vt 0.500000 0.500000
vt 0.500000 0.500000
vt 0.500000 0.375000
vt 0.500000 0.875000
vt 0.500000 0.875000
vt 0.500000 0.750000
vt 0.625000 0.625000
vt 0.625000 0.500000
vt 0.625000 0.500000
vt 0.625000 0.625000
vt 0.500000 0.875000
vt 0.625000 0.875000
vt 0.500000 0.875000
vt 0.500000 0.625000
vt 0.500000 0.625000
vt 0.500000 0.500000
vt 0.500000 0.375000
vt 0.000000 0.000000
vt 0.000000 0.000000
vt 0.625000 0.500000
vt 0.000000 0.000000
vt 0.000000 0.000000
vt 0.625000 0.750000
vt 0.000000 0.000000
vt 0.000000 0.000000
vt 0.625000 0.875000
vt 0.625000 0.750000
vt 0.625000 0.750000
vt 0.625000 0.750000
vt 0.500000 0.500000
vt 0.625000 0.500000
vt 0.500000 0.625000
vt 0.500000 0.750000
vt 0.625000 0.750000
vt 0.625000 0.625000
vt 0.000000 0.000000
vt 0.000000 0.000000
vt 0.500000 0.625000
vt 0.500000 0.625000
vt 0.500000 0.750000
vt 0.500000 0.750000
vt 0.500000 0.375000
vt 0.500000 0.500000
vt 0.500000 0.500000
vt 0.500000 0.750000
vt 0.500000 0.875000
vt 0.500000 0.875000
vt 0.625000 0.625000
vt 0.625000 0.500000
vt 0.500000 0.625000
vt 0.500000 0.625000
vt 0.500000 0.375000
vt 0.500000 0.500000
vt 0.000000 0.000000
vt 0.000000 0.000000
vt 0.000000 0.000000
vt 0.000000 0.000000
vn 0.2673 0.6500 0.7114
vn 0.3077 0.2308 -0.9231
vn 0.8902 0.2091 0.4047
vn 0.0000 -1.0000 -0.0000
vn 0.0000 -0.1991 0.9800
vn 0.8101 0.5442 -0.2181
vn 0.3077 0.2308 0.9231
vn 0.7935 -0.5633 -0.2302
vn 0.2926 -0.4053 0.8661
vn 0.8913 -0.1377 0.4321
vn 0.0000 -0.1991 -0.9800
vn -0.8778 -0.1393 -0.4582
vn 0.6392 0.4335 -0.6353
vn -0.8778 -0.1393 0.4582
vn 0.8913 -0.1377 -0.4321
vn 0.8118 -0.4819 0.3298
vn 0.8365 0.4928 0.2397
vn 0.4261 -0.7058 -0.5659
vn 0.8902 0.2091 -0.4047
vn -0.6923 -0.6343 0.3441
vn -0.1563 -0.8372 -0.5240
vn -0.2011 -0.8058 0.5570
vn -0.6923 -0.6343 -0.3441
vn 0.3854 0.0575 0.9210
vn -0.4319 -0.3542 0.8294
vn -0.2673 0.6500 0.7114
vn -0.3077 0.2308 -0.9231
vn -0.8902 0.2091 0.4047
vn -0.8101 0.5442 -0.2181
vn -0.3077 0.2308 0.9231
vn -0.7935 -0.5633 -0.2302
vn -0.2926 -0.4053 0.8661
vn -0.8913 -0.1377 0.4321
vn 0.8778 -0.1393 -0.4582
vn -0.6392 0.4335 -0.6353
vn 0.8778 -0.1393 0.4582
vn -0.8913 -0.1377 -0.4321
vn -0.8118 -0.4819 0.3298
vn -0.8365 0.4928 0.2397
vn -0.4261 -0.7058 -0.5659
vn -0.8902 0.2091 -0.4047
vn 0.6923 -0.6343 0.3441
vn 0.1563 -0.8372 -0.5240
vn 0.2011 -0.8058 0.5570
vn 0.6923 -0.6343 -0.3441
vn -0.3854 0.0575 0.9210
vn 0.4319 -0.3542 0.8294
usemtl None
s off
f 39/1/1 9/2/1 25/3/1 64/4/1
f 36/5/2 33/6/2 6/7/2 5/8/2
f 15/9/3 16/10/3 4/11/3 3/12/3
f 63/13/4 58/14/4 1/15/4 17/16/4
f 24/17/4 23/18/4 8/19/4 19/20/4
f 58/21/4 22/22/4 7/23/4 1/24/4
f 8/19/5 2/25/5 10/26/5 13/27/5
f 18/28/6 14/29/6 47/30/6 51/31/6
f 23/18/4 61/32/4 2/25/4 8/19/4
f 3/12/7 4/11/7 35/33/7 34/34/7
f 16/10/8 6/7/8 14/29/8 18/28/8
f 35/33/9 4/11/9 9/2/9 39/1/9
f 21/35/4 13/27/4 10/26/4 20/36/4
f 19/20/10 8/19/10 13/27/10 21/35/10
f 1/24/11 7/23/11 12/37/11 11/38/11
f 17/16/12 1/15/12 11/39/12 20/40/12
f 47/30/13 14/29/13 48/41/13
f 2/42/14 17/16/14 20/40/14 10/43/14
f 7/23/15 19/20/15 21/35/15 12/37/15
f 12/37/4 21/35/4 20/36/4 11/38/4
f 4/11/16 16/10/16 18/28/16 9/2/16
f 9/2/17 18/28/17 51/31/17 32/44/17
f 33/6/18 48/45/18 14/29/18 6/7/18
f 22/22/4 24/17/4 19/20/4 7/23/4
f 61/46/4 63/13/4 17/16/4 2/42/4
f 5/8/19 6/7/19 16/10/19 15/9/19
f 5/8/20 15/9/20 24/17/20 22/22/20
f 3/12/21 34/34/21 61/32/21 23/18/21
f 36/5/22 5/8/22 22/22/22 58/21/22
f 15/9/23 3/12/23 23/18/23 24/17/23
f 64/4/24 25/3/24 65/47/24
f 9/2/25 32/44/25 65/48/25 25/3/25
f 39/1/26 64/4/26 66/49/26 40/50/26
f 36/5/27 30/51/27 31/52/27 33/6/27
f 49/53/28 28/54/28 29/55/28 50/56/28
f 63/13/4 52/57/4 26/58/4 58/14/4
f 62/59/4 55/60/4 38/61/4 60/62/4
f 58/21/4 26/63/4 37/64/4 59/65/4
f 38/61/5 45/66/5 42/67/5 27/68/5
f 54/69/29 51/31/29 47/30/29 46/70/29
f 60/62/4 38/61/4 27/68/4 61/32/4
f 28/54/30 34/34/30 35/33/30 29/55/30
f 50/56/31 54/69/31 46/70/31 31/52/31
f 35/33/32 39/1/32 40/50/32 29/55/32
f 57/71/4 56/72/4 42/67/4 45/66/4
f 55/60/33 57/71/33 45/66/33 38/61/33
f 26/63/11 43/73/11 44/74/11 37/64/11
f 52/57/34 56/75/34 43/76/34 26/58/34
f 47/30/35 48/41/35 46/70/35
f 27/77/36 42/78/36 56/75/36 52/57/36
f 37/64/37 44/74/37 57/71/37 55/60/37
f 44/74/4 43/73/4 56/72/4 57/71/4
f 29/55/38 40/50/38 54/69/38 50/56/38
f 40/50/39 32/44/39 51/31/39 54/69/39
f 33/6/40 31/52/40 46/70/40 48/45/40
f 59/65/4 37/64/4 55/60/4 62/59/4
f 61/46/4 27/77/4 52/57/4 63/13/4
f 30/51/41 49/53/41 50/56/41 31/52/41
f 30/51/42 59/65/42 62/59/42 49/53/42
f 28/54/43 60/62/43 61/32/43 34/34/43
f 36/5/44 58/21/44 59/65/44 30/51/44
f 49/53/45 62/59/45 60/62/45 28/54/45
f 64/4/46 65/47/46 66/49/46
f 40/50/47 66/49/47 65/48/47 32/44/47
l 33 53
l 47 41
